<svg xmlns="http://www.w3.org/2000/svg" xmlns:xlink="http://www.w3.org/1999/xlink" version="1.1" width="462px" height="302px" viewBox="-0.5 -0.5 462 302"><defs/><g><rect x="10" y="10" width="440" height="280" rx="42" ry="42" fill="rgb(255, 255, 255)" stroke="rgb(0, 0, 0)" pointer-events="all"/><rect x="12" y="12" width="436" height="276" rx="41.4" ry="41.4" fill="rgb(255, 255, 255)" stroke="rgb(0, 0, 0)" pointer-events="all"/><rect x="90" y="50" width="120" height="80" rx="12" ry="12" fill="rgb(255, 255, 255)" stroke="rgb(0, 0, 0)" pointer-events="all"/><rect x="92" y="52" width="116" height="76" rx="11.4" ry="11.4" fill="rgb(255, 255, 255)" stroke="rgb(0, 0, 0)" pointer-events="all"/><rect x="250" y="50" width="120" height="80" rx="12" ry="12" fill="rgb(255, 255, 255)" stroke="rgb(0, 0, 0)" pointer-events="all"/><rect x="252" y="52" width="116" height="76" rx="11.4" ry="11.4" fill="rgb(255, 255, 255)" stroke="rgb(0, 0, 0)" pointer-events="all"/><rect x="90" y="170" width="120" height="80" rx="12" ry="12" fill="rgb(255, 255, 255)" stroke="rgb(0, 0, 0)" pointer-events="all"/><rect x="92" y="172" width="116" height="76" rx="11.4" ry="11.4" fill="rgb(255, 255, 255)" stroke="rgb(0, 0, 0)" pointer-events="all"/><rect x="250" y="170" width="120" height="80" rx="12" ry="12" fill="#1ba1e2" stroke="#006eaf" pointer-events="all"/><rect x="252" y="172" width="116" height="76" rx="11.4" ry="11.4" fill="#1ba1e2" stroke="#006eaf" pointer-events="all"/></g></svg>